<svg>
  <symbol fill="none" xmlns="http://www.w3.org/2000/svg" viewBox="0 0 72 19" id="funiro">
    <path d="M10.592 4.368V1.2H.56V18h3.312v-6.48H10.4V8.352H3.872V4.368h6.72zM20.782 6v6.48c0 2.088-1.129 2.976-2.64 2.976-1.393 0-2.377-.84-2.377-2.472V6H12.67v7.368c0 3.192 1.992 4.968 4.536 4.968 1.608 0 2.856-.6 3.576-1.68V18h3.096V6h-3.096zm12.603-.336c-1.608 0-2.856.6-3.576 1.68V6h-3.096v12h3.096v-6.48c0-2.088 1.128-2.976 2.64-2.976 1.392 0 2.376.84 2.376 2.472V18h3.096v-7.368c0-3.192-1.992-4.968-4.536-4.968zM42.1 4.56c1.056 0 1.92-.864 1.92-1.896S43.156.744 42.1.744c-1.032 0-1.896.888-1.896 1.92S41.068 4.56 42.1 4.56zM40.564 18h3.096V6h-3.096v12zm9.026-9.936V6h-3.096v12h3.096v-5.736c0-2.52 2.04-3.24 3.648-3.048V5.76c-1.512 0-3.024.672-3.648 2.304zm10.725 10.272c3.529 0 6.36-2.76 6.36-6.336 0-3.576-2.831-6.336-6.36-6.336-3.527 0-6.335 2.76-6.335 6.336 0 3.576 2.808 6.336 6.336 6.336zm0-3.024c-1.823 0-3.24-1.368-3.24-3.312 0-1.944 1.416-3.312 3.24-3.312 1.849 0 3.265 1.368 3.265 3.312 0 1.944-1.416 3.312-3.264 3.312zm9.378 3c1.128 0 2.04-.912 2.04-2.04 0-1.128-.912-2.04-2.04-2.04-1.128 0-2.04.912-2.04 2.04 0 1.128.912 2.04 2.04 2.04z" fill="#000"></path>
  </symbol>
  <symbol fill="none" xmlns="http://www.w3.org/2000/svg" viewBox="0 0 20 14" id="arrow">
    <path d="M19 7H1m18 0l-6-6m6 6l-6 6" stroke="#000000" stroke-width="1.5" stroke-linecap="round" stroke-linejoin="round"></path>
  </symbol>
  <symbol fill="none" xmlns="http://www.w3.org/2000/svg" viewBox="0 0 16 16" id="call">
    <path d="M11.43 11.067l-.515.773c-.103.154-.239.286-.418.334-.588.155-2.147.225-4.522-2.15C3.601 7.65 3.671 6.09 3.826 5.503c.048-.18.18-.315.334-.418l.773-.516a1.253 1.253 0 00.348-1.737L3.82.642A1.253 1.253 0 002.283.184l-.659.282c-.5.215-.908.6-1.152 1.086-.203.407-.36.836-.382 1.29-.068 1.432.246 4.96 4.176 8.89 3.93 3.93 7.458 4.243 8.89 4.176.454-.021.883-.179 1.29-.382a2.302 2.302 0 001.086-1.152l.282-.66c.238-.554.046-1.2-.456-1.535l-2.191-1.46a1.253 1.253 0 00-1.737.347z" fill="#898989"></path>
  </symbol>
  <symbol fill="none" xmlns="http://www.w3.org/2000/svg" viewBox="0 0 24 24" id="cart">
    <path d="M1 2.5h1.654c.479 0 .718 0 .912.087a1 1 0 01.423.355c.119.177.16.413.242.884L4.609 6m0 0l.883 5.077c.179 1.03.269 1.546.534 1.917a2 2 0 00.937.714c.428.157.949.107 1.99.006l9.661-.935c1.016-.098 1.524-.147 1.908-.376a2 2 0 00.788-.867c.19-.405.19-.915.19-1.935v0c0-1.085 0-1.628-.208-2.047a2 2 0 00-.852-.877c-.413-.22-.955-.237-2.04-.269L4.61 6z" stroke="#262F56" stroke-width="1.8" stroke-linecap="round" stroke-linejoin="round"></path>
    <circle cx="8.5" cy="19" r="2" stroke="#262F56" stroke-width="1.8"></circle>
    <circle cx="18" cy="19" r="2" stroke="#262F56" stroke-width="1.8"></circle>
  </symbol>
  <symbol fill="none" xmlns="http://www.w3.org/2000/svg" viewBox="0 0 24 21" id="fav">
    <path d="M12 19.054C-8 8 6-4 12 3.588 18-4 32 8 12 19.054z" stroke="#262F56" stroke-width="1.8"></path>
  </symbol>
  <symbol fill="none" xmlns="http://www.w3.org/2000/svg" viewBox="0 0 36 40" id="feature1">
    <path d="M30.903 2.344c-.854 0-1.654.23-2.344.63V1.172A1.171 1.171 0 0027.387 0H8.637C7.99 0 7.465.525 7.465 1.172v1.817a4.657 4.657 0 00-2.368-.645A4.693 4.693 0 00.409 7.03a9.79 9.79 0 001.69 5.51c1.881 2.778 4.202 3.5 6.122 4.267a10.603 10.603 0 006.138 5.977l-.864 5.496h-.17a3.52 3.52 0 00-3.516 3.516v5.86H8.637a1.172 1.172 0 000 2.343h18.75a1.172 1.172 0 000-2.344h-1.172v-5.86A3.52 3.52 0 0022.7 28.28h-.17l-.864-5.496a10.604 10.604 0 006.143-5.988c1.814-.726 4.191-1.45 6.092-4.257a9.79 9.79 0 001.69-5.509 4.693 4.693 0 00-4.688-4.687zM7.457 13.979A7.447 7.447 0 012.753 7.03a2.346 2.346 0 012.344-2.343A2.346 2.346 0 017.44 7.03c0 .083.008.163.025.24v5.62c0 .376.02.748.058 1.115l-.067-.027zm16.415 23.677H12.153v-2.343h11.719v2.343zM22.7 30.625c.646 0 1.172.526 1.172 1.172v1.172H12.153v-1.172c0-.646.526-1.172 1.172-1.172H22.7zm-6.833-2.344l.776-4.932a10.602 10.602 0 002.74 0l.774 4.932h-4.29zm10.348-15.39c0 4.523-3.68 8.203-8.203 8.203S9.81 17.414 9.81 12.89V7.03h16.407v5.86zm0-8.204H9.81V2.345h16.407v2.344zm2.328 9.292l-.041.016c.037-.363.057-.731.057-1.104V7.03a2.347 2.347 0 012.344-2.343 2.346 2.346 0 012.344 2.343 7.447 7.447 0 01-4.704 6.948z" fill="#3A3A3A"></path>
  </symbol>
  <symbol fill="none" xmlns="http://www.w3.org/2000/svg" viewBox="0 0 40 40" id="feature2">
    <path d="M37.857 14.174c-.527-1.634-.303-4.088-1.674-5.982-1.383-1.91-3.788-2.452-5.146-3.445-1.343-.983-2.593-3.12-4.853-3.858-2.197-.717-4.443.255-6.184.255-1.741 0-3.987-.972-6.184-.255-2.26.737-3.51 2.876-4.853 3.858-1.357.992-3.763 1.536-5.145 3.445-1.371 1.893-1.148 4.352-1.675 5.982C1.64 15.726 0 17.588 0 20c0 2.413 1.64 4.269 2.143 5.826.527 1.635.302 4.088 1.674 5.982 1.383 1.91 3.788 2.452 5.146 3.445 1.343.983 2.593 3.121 4.853 3.859 2.195.716 4.445-.256 6.184-.256 1.737 0 3.992.971 6.184.256 2.26-.738 3.51-2.876 4.853-3.858 1.357-.992 3.763-1.537 5.145-3.445 1.371-1.893 1.148-4.352 1.675-5.983C38.36 24.274 40 22.412 40 20c0-2.413-1.639-4.268-2.143-5.826zm-2.973 10.691c-.615 1.905-.454 4.036-1.232 5.11-.789 1.09-2.86 1.586-4.46 2.756-1.58 1.156-2.689 2.99-3.978 3.41-1.22.398-3.206-.41-5.214-.41-2.022 0-3.989.81-5.214.41-1.289-.42-2.396-2.252-3.979-3.41-1.589-1.163-3.672-1.67-4.459-2.756-.775-1.07-.62-3.217-1.232-5.11-.6-1.854-1.991-3.46-1.991-4.865 0-1.406 1.39-3.006 1.991-4.865.615-1.904.454-4.035 1.232-5.11.788-1.088 2.862-1.587 4.46-2.756 1.586-1.16 2.687-2.988 3.978-3.41 1.218-.397 3.212.41 5.214.41 2.026 0 3.988-.81 5.214-.41 1.289.421 2.396 2.254 3.979 3.41 1.589 1.163 3.672 1.67 4.459 2.756.775 1.071.62 3.215 1.232 5.11.599 1.855 1.991 3.46 1.991 4.865 0 1.406-1.39 3.007-1.991 4.865zm-7.685-9.88c.61.61.61 1.6 0 2.21l-7.821 7.82c-.61.61-1.6.61-2.21 0l-4.367-4.366a1.562 1.562 0 112.21-2.21l3.262 3.262 6.716-6.716c.61-.61 1.6-.61 2.21 0z" fill="#3A3A3A"></path>
  </symbol>
  <symbol fill="none" xmlns="http://www.w3.org/2000/svg" viewBox="0 0 40 38" id="feature3">
    <path d="M36.899 19.735V1.52c0-.65-.527-1.177-1.177-1.177H4.197C3.547.343 3.02.87 3.02 1.52v19.667a3.562 3.562 0 00-1.613.667c-1.548 1.098-1.914 3.553-.618 5.068l5.3 6.425c3.28 3.84 6.766 4.31 11.947 4.31 4.446 0 6.433.02 10.308-.863l3.773-.903c.612.855 1.583 1.408 2.675 1.408h1.859c1.846 0 3.349-1.583 3.349-3.528V23.252c0-1.857-1.37-3.383-3.101-3.517zm-5.29 2.42l-1.567-.796a9.322 9.322 0 00-8.177-.132c-.714.28-2.272 1.224-3.08 1.192h-5.44a3.276 3.276 0 00-3.273 3.273v.858l-.03-.032-3.886-4.217a3.585 3.585 0 00-.783-.64V9.987h9.63v4.314c0 .65.527 1.176 1.176 1.176h7.425c.65 0 1.177-.527 1.177-1.176V9.987h9.764v9.748c-1.375.106-2.52 1.09-2.935 2.42zM17.357 9.987h5.071v3.137h-5.071V9.987zm17.19-2.353H24.78V2.696h9.764v4.938zM22.426 2.696v4.938h-5.071V2.696h5.071zm-7.424 0v4.938h-9.63V2.696h9.63zm12.795 31.809c-3.58.82-5.735.786-9.72.786-4.863 0-7.213-.078-10.173-3.442l-5.3-6.425c-.922-1.2.748-2.617 1.82-1.528l3.885 4.217c1.027 1.083 2.32 1.68 3.912 1.714h10.77a1.177 1.177 0 000-2.353H12.426v-1.782a.92.92 0 01.92-.92h5.44c1.225.088 2.994-.935 4.073-1.411a6.98 6.98 0 016.12.097l2.465 1.252v8.923l-3.645.872zm9.849-.734c0 .648-.447 1.175-.996 1.175h-1.859c-.549 0-.995-.527-.995-1.175V23.252c0-.648.446-1.175.995-1.175h1.859c.549 0 .996.527.996 1.175v10.519z" fill="#3A3A3A"></path>
  </symbol>
  <symbol fill="none" xmlns="http://www.w3.org/2000/svg" viewBox="0 0 36 40" id="feature4">
    <path d="M34.462 15.975C34.2 7.122 26.916 0 18 0S1.8 7.122 1.537 15.975L.353 17.16v8.033l1.176 1.177v5.473a5.81 5.81 0 005.804 5.804h1.458A3.535 3.535 0 0012.118 40h2.353a3.535 3.535 0 003.328-2.356l.201.003c5.681 0 10.435-4.048 11.528-9.412h3.077l3.042-3.042V17.16l-1.185-1.185zM18 2.353c6.983 0 12.797 5.096 13.92 11.765h-2.392C28.435 8.754 23.681 4.706 18 4.706S7.565 8.754 6.472 14.118H4.079C5.203 7.449 11.017 2.353 18 2.353zm9.114 11.765c-3.803-.012-6.49.22-8.704-3.018l-1.076-1.572-.924 1.666c-1.347 2.426-3.16 2.924-5.469 2.924H8.886c1.047-4.055 4.737-7.06 9.114-7.06 4.378 0 8.067 3.005 9.114 7.06zM6.235 25.882H4.37L2.706 24.22v-6.085l1.664-1.663h1.865v9.411zm-2.353 5.961v-3.608H6.47a11.661 11.661 0 003.072 5.826 3.52 3.52 0 00-.751 1.233H7.333a3.455 3.455 0 01-3.45-3.45zm10.589 5.804h-2.353a1.178 1.178 0 010-2.353h2.353a1.178 1.178 0 010 2.353zm12.94-11.765c0 5.19-4.221 9.412-9.411 9.412a6.87 6.87 0 01-.203-.003 3.535 3.535 0 00-3.326-2.35c-2.416.005-2.378-.012-2.679.016a9.357 9.357 0 01-3.204-7.075v-9.411h2.353c2.082 0 4.618-.344 6.58-2.733 2.59 2.714 5.755 2.733 8.596 2.733h1.295v9.411zm5.883-1.663l-1.664 1.663h-1.865v-9.411h1.865l1.664 1.663v6.085z" fill="#3A3A3A"></path>
  </symbol>
  <symbol fill="none" xmlns="http://www.w3.org/2000/svg" viewBox="0 0 16 19" id="pin">
    <path fill-rule="evenodd" clip-rule="evenodd" d="M8.974 18.541c2.116-1.443 6.943-5.236 6.943-9.791a7.917 7.917 0 10-15.834 0c0 4.555 4.827 8.348 6.943 9.791a1.718 1.718 0 001.948 0zM8 11.25a2.5 2.5 0 100-5 2.5 2.5 0 000 5z" fill="#898989"></path>
  </symbol>
  <symbol fill="none" xmlns="http://www.w3.org/2000/svg" viewBox="0 0 20 20" id="search">
    <path d="M16.667 16.667L12.58 12.58m0 0a5.417 5.417 0 10-7.66-7.66 5.417 5.417 0 007.66 7.66z" stroke="#333" stroke-width="1.8" stroke-linecap="round" stroke-linejoin="round"></path>
  </symbol>
  <symbol fill="none" xmlns="http://www.w3.org/2000/svg" viewBox="0 0 18 18" id="send">
    <path d="M17.782.217a.75.75 0 00-.787-.172l-16.5 6a.75.75 0 000 1.402l6.442 2.573 4.756-4.77 1.057 1.057-4.777 4.778 2.58 6.442a.75.75 0 00.697.473.75.75 0 00.69-.495l6-16.5a.75.75 0 00-.158-.788z" fill="#3A3A3A"></path>
  </symbol>
  <symbol fill="none" xmlns="http://www.w3.org/2000/svg" width="25" height="25" viewBox="0 0 18 20" id="share">
    <path d="M15 14c-.788 0-1.5.31-2.034.807L5.91 10.7c.05-.23.09-.46.09-.7 0-.24-.04-.47-.09-.7l7.05-4.11c.54.5 1.25.81 2.04.81 1.66 0 3-1.34 3-3s-1.34-3-3-3-3 1.34-3 3c0 .24.04.47.09.7L5.04 7.81C4.5 7.31 3.79 7 3 7c-1.66 0-3 1.34-3 3s1.34 3 3 3c.79 0 1.5-.31 2.04-.81l7.048 4.118A2.984 2.984 0 0012 17a3 3 0 103-3z" fill="#262F56"></path>
  </symbol>
</svg>