<svg width="16" height="14" viewBox="0 0 16 14" fill="none" xmlns="http://www.w3.org/2000/svg">
<path d="M15.7005 0.206582C14.9877 0.609422 14.3886 0.919306 13.5726 1.01227C12.9632 0.299552 12.1575 0 11.1453 0C9.01743 0 7.39574 2.02453 7.90187 4.04906C5.16462 3.94577 2.73725 2.63396 1.11556 0.609429C0.309879 2.02454 0.609427 4.04906 2.12783 4.96836C1.5184 4.96836 1.11556 4.76178 0.609426 4.56552C0.609426 6.08392 1.62169 7.49903 3.24338 7.80891C2.73725 7.9122 2.33441 8.0155 1.72499 7.9122C2.12783 9.22402 3.34668 10.2363 4.76178 10.2363C3.54293 11.4551 1.72498 11.9613 0 11.7547C1.41511 12.6636 3.14009 13.1698 5.06133 13.1698C11.1349 13.1698 14.5746 8.00516 14.3783 3.34667C15.091 2.84054 15.5972 2.33441 16 1.62169C15.3906 1.92124 14.7811 2.12782 14.0788 2.12782C14.9877 1.72498 15.4939 1.01226 15.7005 0.206582Z" fill="white"/>
</svg>
