<svg width="9" height="17" viewBox="0 0 9 17" fill="none" xmlns="http://www.w3.org/2000/svg">
<path d="M8.81352 0C7.98909 0 7.16466 0 6.34023 0C5.70228 0.0883315 5.14285 0.186475 4.59323 0.549616C3.494 1.28571 2.84624 2.29662 2.7579 3.57252C2.7579 4.21047 2.7579 4.7699 2.7579 5.40785C2.7579 5.59433 2.7579 5.59433 2.57142 5.59433C1.747 5.59433 1.01091 5.59433 0.18648 5.59433C2.39849e-06 5.59433 0 5.68266 0 5.78081C0 6.5169 0 7.34133 0 8.07742C0 8.2639 0.0883339 8.2639 0.18648 8.2639C1.01091 8.2639 1.747 8.2639 2.57142 8.2639C2.7579 8.2639 2.7579 8.26391 2.7579 8.45038C2.7579 10.9237 2.7579 13.4068 2.7579 15.88C2.7579 16.1549 2.75791 16.1549 2.94438 16.1549C3.85714 16.1549 4.69138 16.1549 5.60414 16.1549C5.79061 16.1549 5.79062 16.0665 5.79062 15.9684C5.79062 14.6827 5.79062 13.4951 5.79062 12.2094C5.79062 11.012 5.79062 9.7361 5.79062 8.53871C5.79062 8.2639 5.79062 8.2639 6.06542 8.2639C6.97818 8.2639 7.90076 8.2639 8.81352 8.2639C9 8.2639 9 8.17557 9 8.07742C9 7.253 9 6.5169 9 5.78081C9 5.59433 9 5.59433 8.81352 5.59433C7.90076 5.59433 6.88986 5.59433 5.96729 5.59433C5.78081 5.59433 5.78081 5.50599 5.78081 5.40785C5.78081 5.04471 5.78081 4.58343 5.78081 4.21047C5.78081 3.93566 5.78081 3.66085 5.78081 3.47437C5.86914 3.11123 6.14394 2.83642 6.60523 2.83642C7.34133 2.83642 8.07743 2.83642 8.80371 2.83642C8.89204 2.83642 8.99019 2.83642 8.99019 2.64994C8.99019 1.82552 8.99019 1.00109 8.99019 0.176663C9 2.92498e-07 8.91167 0 8.81352 0Z" fill="white"/>
</svg>
