<svg width="16" height="16" viewBox="0 0 16 16" fill="none" xmlns="http://www.w3.org/2000/svg">
<path d="M7.99999 1.44369C10.1384 1.44369 10.3881 1.45455 11.2347 1.48711C13.4057 1.58481 14.4152 2.61601 14.5129 4.76526C14.5563 5.61194 14.5563 5.8616 14.5563 8C14.5563 10.1384 14.5454 10.3881 14.5129 11.2347C14.4152 13.384 13.4057 14.4152 11.2347 14.5129C10.3881 14.5563 10.1384 14.5563 7.99999 14.5563C5.86159 14.5563 5.61194 14.5455 4.76526 14.5129C2.5943 14.4152 1.5848 13.384 1.4871 11.2347C1.44368 10.3881 1.44369 10.1384 1.44369 8C1.44369 5.8616 1.45454 5.61194 1.4871 4.76526C1.5848 2.61601 2.5943 1.58481 4.76526 1.48711C5.60108 1.44369 5.86159 1.44369 7.99999 1.44369ZM7.99999 0C5.82903 0 5.55767 0.0108558 4.70014 0.0434202C1.79105 0.173678 0.17367 1.79105 0.043412 4.70014C-7.28681e-06 5.55767 0 5.82904 0 8C0 10.171 0.0108475 10.4423 0.043412 11.2999C0.17367 14.209 1.79105 15.8263 4.70014 15.9566C5.55767 16 5.82903 16 7.99999 16C10.171 16 10.4423 15.9891 11.2999 15.9566C14.1981 15.8263 15.8263 14.209 15.9566 11.2999C16 10.4423 16 10.171 16 8C16 5.82904 15.9891 5.55767 15.9566 4.70014C15.8263 1.8019 14.209 0.173678 11.2999 0.0434202C10.4423 0.0108558 10.171 0 7.99999 0ZM7.99999 3.88602C5.73134 3.88602 3.88602 5.72049 3.88602 8C3.88602 10.2795 5.72048 12.114 7.99999 12.114C10.2686 12.114 12.114 10.2795 12.114 8C12.1031 5.73134 10.2686 3.88602 7.99999 3.88602ZM7.99999 10.6703C6.52374 10.6703 5.32972 9.47625 5.32972 8C5.32972 6.52375 6.52374 5.32972 7.99999 5.32972C9.47625 5.32972 10.6703 6.52375 10.6703 8C10.6594 9.47625 9.46539 10.6703 7.99999 10.6703ZM12.2659 2.76798C11.7341 2.76798 11.2999 3.20217 11.2999 3.7232C11.2999 4.25509 11.7341 4.67843 12.2659 4.67843C12.7978 4.67843 13.2212 4.24423 13.2212 3.7232C13.2212 3.20217 12.7978 2.76798 12.2659 2.76798Z" fill="white"/>
</svg>
